<?xml version="1.0" standalone="no"?>
<!DOCTYPE svg PUBLIC "-//W3C//DTD SVG 20010904//EN"
 "http://www.w3.org/TR/2001/REC-SVG-20010904/DTD/svg10.dtd">
<svg version="1.0" xmlns="http://www.w3.org/2000/svg"
 width="260.000000pt" height="260.000000pt" viewBox="0 0 260.000000 260.000000"
 preserveAspectRatio="xMidYMid meet">
<metadata>
Created by potrace 1.14, written by Peter Selinger 2001-2017
</metadata>
<g transform="translate(0.000000,260.000000) scale(0.100000,-0.100000)"
fill="#000000" stroke="none">
<path d="M581 2467 c-8 -8 -11 -135 -11 -402 l0 -391 -112 -74 c-62 -41 -119
-78 -128 -82 -46 -18 -46 -15 -45 -683 0 -687 -3 -652 57 -693 21 -16 104 -17
938 -19 503 -1 930 2 948 7 31 8 80 52 83 75 7 52 3 1264 -3 1278 -5 10 -20
22 -34 27 -13 5 -24 14 -24 19 0 5 -8 11 -17 15 -22 7 -50 25 -77 49 -11 9
-26 17 -33 17 -7 0 -13 3 -13 8 0 4 -18 18 -40 32 l-40 24 0 392 c0 301 -3
394 -12 402 -19 14 -1423 13 -1437 -1z"/>
</g>
</svg>
